<?xml version="1.0" encoding="UTF-8" standalone="no"?><svg xmlns="http://www.w3.org/2000/svg" xmlns:xlink="http://www.w3.org/1999/xlink" contentStyleType="text/css" height="631px" preserveAspectRatio="none" style="width:283px;height:631px;background:#FFFFFF;" version="1.1" viewBox="0 0 283 631" width="283px" zoomAndPan="magnify"><defs/><g><!--MD5=[e5da348f9a286ac789819f64e84f1dc7]
class Entreprise--><g id="elem_Entreprise"><rect codeLine="1" fill="#F1F1F1" height="64.2969" id="Entreprise" rx="2.5" ry="2.5" style="stroke:#181818;stroke-width:0.5;" width="108" x="145" y="7"/><ellipse cx="160" cy="23" fill="#ADD1B2" rx="11" ry="11" style="stroke:#181818;stroke-width:1.0;"/><path d="M162.3438,18.6719 C161.4063,18.2344 160.8125,18.0938 159.9375,18.0938 C157.3125,18.0938 155.3125,20.1719 155.3125,22.8906 L155.3125,24.0156 C155.3125,26.5938 157.4219,28.4844 160.3125,28.4844 C161.5313,28.4844 162.6875,28.1875 163.4375,27.6406 C164.0156,27.2344 164.3438,26.7813 164.3438,26.3906 C164.3438,25.9375 163.9531,25.5469 163.4844,25.5469 C163.2656,25.5469 163.0625,25.625 162.875,25.8125 C162.4219,26.2969 162.4219,26.2969 162.2344,26.3906 C161.8125,26.6563 161.125,26.7813 160.3594,26.7813 C158.3125,26.7813 157.0156,25.6875 157.0156,23.9844 L157.0156,22.8906 C157.0156,21.1094 158.2656,19.7969 160,19.7969 C160.5781,19.7969 161.1875,19.9531 161.6563,20.2031 C162.1406,20.4844 162.3125,20.7031 162.4063,21.1094 C162.4688,21.5156 162.5,21.6406 162.6406,21.7656 C162.7813,21.9063 163.0156,22.0156 163.2344,22.0156 C163.5,22.0156 163.7656,21.875 163.9375,21.6563 C164.0469,21.5 164.0781,21.3125 164.0781,20.8906 L164.0781,19.4688 C164.0781,19.0313 164.0625,18.9063 163.9688,18.75 C163.8125,18.4844 163.5313,18.3438 163.2344,18.3438 C162.9375,18.3438 162.7344,18.4375 162.5156,18.75 L162.3438,18.6719 Z " fill="#000000"/><text fill="#000000" font-family="sans-serif" font-size="14" lengthAdjust="spacing" textLength="76" x="174" y="27.8467">Entreprise</text><line style="stroke:#181818;stroke-width:0.5;" x1="146" x2="252" y1="39" y2="39"/><text fill="#000000" font-family="sans-serif" font-size="14" lengthAdjust="spacing" textLength="85" x="151" y="55.9951">nom: String</text><line style="stroke:#181818;stroke-width:0.5;" x1="146" x2="252" y1="63.2969" y2="63.2969"/></g><!--MD5=[e8de2477f0619782a88ba6174d99456f]
class Artisan--><g id="elem_Artisan"><rect codeLine="5" fill="#F1F1F1" height="129.4844" id="Artisan" rx="2.5" ry="2.5" style="stroke:#181818;stroke-width:0.5;" width="123" x="47.5" y="148"/><ellipse cx="80.5" cy="164" fill="#ADD1B2" rx="11" ry="11" style="stroke:#181818;stroke-width:1.0;"/><path d="M82.8438,159.6719 C81.9063,159.2344 81.3125,159.0938 80.4375,159.0938 C77.8125,159.0938 75.8125,161.1719 75.8125,163.8906 L75.8125,165.0156 C75.8125,167.5938 77.9219,169.4844 80.8125,169.4844 C82.0313,169.4844 83.1875,169.1875 83.9375,168.6406 C84.5156,168.2344 84.8438,167.7813 84.8438,167.3906 C84.8438,166.9375 84.4531,166.5469 83.9844,166.5469 C83.7656,166.5469 83.5625,166.625 83.375,166.8125 C82.9219,167.2969 82.9219,167.2969 82.7344,167.3906 C82.3125,167.6563 81.625,167.7813 80.8594,167.7813 C78.8125,167.7813 77.5156,166.6875 77.5156,164.9844 L77.5156,163.8906 C77.5156,162.1094 78.7656,160.7969 80.5,160.7969 C81.0781,160.7969 81.6875,160.9531 82.1563,161.2031 C82.6406,161.4844 82.8125,161.7031 82.9063,162.1094 C82.9688,162.5156 83,162.6406 83.1406,162.7656 C83.2813,162.9063 83.5156,163.0156 83.7344,163.0156 C84,163.0156 84.2656,162.875 84.4375,162.6563 C84.5469,162.5 84.5781,162.3125 84.5781,161.8906 L84.5781,160.4688 C84.5781,160.0313 84.5625,159.9063 84.4688,159.75 C84.3125,159.4844 84.0313,159.3438 83.7344,159.3438 C83.4375,159.3438 83.2344,159.4375 83.0156,159.75 L82.8438,159.6719 Z " fill="#000000"/><text fill="#000000" font-family="sans-serif" font-size="14" lengthAdjust="spacing" textLength="51" x="98.5" y="168.8467">Artisan</text><line style="stroke:#181818;stroke-width:0.5;" x1="48.5" x2="169.5" y1="180" y2="180"/><text fill="#000000" font-family="sans-serif" font-size="14" lengthAdjust="spacing" textLength="110" x="53.5" y="196.9951">prenom: String</text><text fill="#000000" font-family="sans-serif" font-size="14" lengthAdjust="spacing" textLength="85" x="53.5" y="213.292">nom: String</text><text fill="#000000" font-family="sans-serif" font-size="14" lengthAdjust="spacing" textLength="75" x="53.5" y="229.5889">salaire: int</text><text fill="#000000" font-family="sans-serif" font-size="14" lengthAdjust="spacing" textLength="111" x="53.5" y="245.8857">horaires: String</text><text fill="#000000" font-family="sans-serif" font-size="14" lengthAdjust="spacing" textLength="73" x="53.5" y="262.1826">tel: String</text><line style="stroke:#181818;stroke-width:0.5;" x1="48.5" x2="169.5" y1="269.4844" y2="269.4844"/></g><!--MD5=[7231450f633845da6e92cf0373678125]
class Chantier--><g id="elem_Chantier"><rect codeLine="13" fill="#F1F1F1" height="96.8906" id="Chantier" rx="2.5" ry="2.5" style="stroke:#181818;stroke-width:0.5;" width="143" x="113.5" y="528"/><ellipse cx="150.55" cy="544" fill="#ADD1B2" rx="11" ry="11" style="stroke:#181818;stroke-width:1.0;"/><path d="M152.8938,539.6719 C151.9563,539.2344 151.3625,539.0938 150.4875,539.0938 C147.8625,539.0938 145.8625,541.1719 145.8625,543.8906 L145.8625,545.0156 C145.8625,547.5938 147.9719,549.4844 150.8625,549.4844 C152.0813,549.4844 153.2375,549.1875 153.9875,548.6406 C154.5656,548.2344 154.8938,547.7813 154.8938,547.3906 C154.8938,546.9375 154.5031,546.5469 154.0344,546.5469 C153.8156,546.5469 153.6125,546.625 153.425,546.8125 C152.9719,547.2969 152.9719,547.2969 152.7844,547.3906 C152.3625,547.6563 151.675,547.7813 150.9094,547.7813 C148.8625,547.7813 147.5656,546.6875 147.5656,544.9844 L147.5656,543.8906 C147.5656,542.1094 148.8156,540.7969 150.55,540.7969 C151.1281,540.7969 151.7375,540.9531 152.2063,541.2031 C152.6906,541.4844 152.8625,541.7031 152.9563,542.1094 C153.0188,542.5156 153.05,542.6406 153.1906,542.7656 C153.3313,542.9063 153.5656,543.0156 153.7844,543.0156 C154.05,543.0156 154.3156,542.875 154.4875,542.6563 C154.5969,542.5 154.6281,542.3125 154.6281,541.8906 L154.6281,540.4688 C154.6281,540.0313 154.6125,539.9063 154.5188,539.75 C154.3625,539.4844 154.0813,539.3438 153.7844,539.3438 C153.4875,539.3438 153.2844,539.4375 153.0656,539.75 L152.8938,539.6719 Z " fill="#000000"/><text fill="#000000" font-family="sans-serif" font-size="14" lengthAdjust="spacing" textLength="62" x="169.45" y="548.8467">Chantier</text><line style="stroke:#181818;stroke-width:0.5;" x1="114.5" x2="255.5" y1="560" y2="560"/><text fill="#000000" font-family="sans-serif" font-size="14" lengthAdjust="spacing" textLength="131" x="119.5" y="576.9951">dateDebut: String</text><text fill="#000000" font-family="sans-serif" font-size="14" lengthAdjust="spacing" textLength="107" x="119.5" y="593.292">dateFin: String</text><text fill="#000000" font-family="sans-serif" font-size="14" lengthAdjust="spacing" textLength="108" x="119.5" y="609.5889">adresse: String</text><line style="stroke:#181818;stroke-width:0.5;" x1="114.5" x2="255.5" y1="616.8906" y2="616.8906"/></g><!--MD5=[04d440ec53fb2cc018de6d91273d6939]
class Affecter--><g id="elem_Affecter"><rect codeLine="19" fill="#F1F1F1" height="113.1875" id="Affecter" rx="2.5" ry="2.5" style="stroke:#181818;stroke-width:0.5;" width="160" x="45" y="354"/><ellipse cx="90.25" cy="370" fill="#ADD1B2" rx="11" ry="11" style="stroke:#181818;stroke-width:1.0;"/><path d="M92.5938,365.6719 C91.6563,365.2344 91.0625,365.0938 90.1875,365.0938 C87.5625,365.0938 85.5625,367.1719 85.5625,369.8906 L85.5625,371.0156 C85.5625,373.5938 87.6719,375.4844 90.5625,375.4844 C91.7813,375.4844 92.9375,375.1875 93.6875,374.6406 C94.2656,374.2344 94.5938,373.7813 94.5938,373.3906 C94.5938,372.9375 94.2031,372.5469 93.7344,372.5469 C93.5156,372.5469 93.3125,372.625 93.125,372.8125 C92.6719,373.2969 92.6719,373.2969 92.4844,373.3906 C92.0625,373.6563 91.375,373.7813 90.6094,373.7813 C88.5625,373.7813 87.2656,372.6875 87.2656,370.9844 L87.2656,369.8906 C87.2656,368.1094 88.5156,366.7969 90.25,366.7969 C90.8281,366.7969 91.4375,366.9531 91.9063,367.2031 C92.3906,367.4844 92.5625,367.7031 92.6563,368.1094 C92.7188,368.5156 92.75,368.6406 92.8906,368.7656 C93.0313,368.9063 93.2656,369.0156 93.4844,369.0156 C93.75,369.0156 94.0156,368.875 94.1875,368.6563 C94.2969,368.5 94.3281,368.3125 94.3281,367.8906 L94.3281,366.4688 C94.3281,366.0313 94.3125,365.9063 94.2188,365.75 C94.0625,365.4844 93.7813,365.3438 93.4844,365.3438 C93.1875,365.3438 92.9844,365.4375 92.7656,365.75 L92.5938,365.6719 Z " fill="#000000"/><text fill="#000000" font-family="sans-serif" font-size="14" lengthAdjust="spacing" textLength="61" x="110.75" y="374.8467">Affecter</text><line style="stroke:#181818;stroke-width:0.5;" x1="46" x2="204" y1="386" y2="386"/><text fill="#000000" font-family="sans-serif" font-size="14" lengthAdjust="spacing" textLength="97" x="51" y="402.9951">nbHeures: int</text><text fill="#000000" font-family="sans-serif" font-size="14" lengthAdjust="spacing" textLength="148" x="51" y="419.292">debutMission: String</text><text fill="#000000" font-family="sans-serif" font-size="14" lengthAdjust="spacing" textLength="124" x="51" y="435.5889">finMission: String</text><line style="stroke:#181818;stroke-width:0.5;" x1="46" x2="204" y1="442.8906" y2="442.8906"/><text fill="#000000" font-family="sans-serif" font-size="14" lengthAdjust="spacing" textLength="123" x="51" y="459.8857">int calculerPaye()</text></g><ellipse cx="8" cy="410.5" fill="#000000" rx="2" ry="2" style="stroke:none;stroke-width:1.0;"/><!--MD5=[73a869ac549d56a3a03d5079437b2a26]
link Entreprise to Artisan--><g id="link_Entreprise_Artisan"><path codeLine="26" d="M182.702,71.057 C172.115,91.231 157.891,118.335 144.763,143.351 " fill="none" id="Entreprise-to-Artisan" style="stroke:#181818;stroke-width:1.0;"/><polygon fill="#181818" points="142.326,147.996,150.0511,141.8868,144.6502,143.569,142.968,138.1681,142.326,147.996" style="stroke:#181818;stroke-width:1.0;"/><text fill="#000000" font-family="sans-serif" font-size="13" lengthAdjust="spacing" textLength="61" x="165" y="114.0669">Employer</text><text fill="#000000" font-family="sans-serif" font-size="13" lengthAdjust="spacing" textLength="24" x="152.8655" y="91.2656">0..1</text><text fill="#000000" font-family="sans-serif" font-size="13" lengthAdjust="spacing" textLength="23" x="121.8496" y="136.7171">0..*</text></g><!--MD5=[c2de7d0ee42670d9ff0a26fc84907427]
link Entreprise to Chantier--><g id="link_Entreprise_Chantier"><path codeLine="27" d="M221.668,71.16 C227.121,80.329 232.182,90.679 235,101 C236.99,108.289 235.13,110.446 235,118 C232.333,273.18 251.644,314.463 223,467 C219.498,485.647 213.357,505.407 207.02,522.882 " fill="none" id="Entreprise-to-Chantier" style="stroke:#181818;stroke-width:1.0;"/><polygon fill="#181818" points="205.229,527.7468,212.0913,520.6822,206.9559,523.0545,204.5836,517.9191,205.229,527.7468" style="stroke:#181818;stroke-width:1.0;"/><text fill="#000000" font-family="sans-serif" font-size="13" lengthAdjust="spacing" textLength="36" x="239" y="320.0669">Gérer</text><text fill="#000000" font-family="sans-serif" font-size="13" lengthAdjust="spacing" textLength="24" x="199.8683" y="91.3899">0..1</text><text fill="#000000" font-family="sans-serif" font-size="13" lengthAdjust="spacing" textLength="23" x="183.4565" y="516.9203">0..*</text></g><!--MD5=[20a794e892758b62e8f066261d4d6935]
link Artisan to apoint169229--><g id="link_Artisan_apoint169229"><path d="M68.2709,277.12 C54.134,300.719 38.8671,328.06 27,354 C17.5093,374.745 10.0804,401.678 8.3715,408.088 " fill="none" id="Artisan-apoint169229" style="stroke:#181818;stroke-width:1.0;"/></g><!--MD5=[5a49fb5f33df52b36a0df690855d0879]
link apoint169229 to Chantier--><g id="link_apoint169229_Chantier"><path d="M8.1697,413.033 C9.0041,419.966 13.204,448.831 27,467 C49.7391,496.947 83.1885,521.596 113.462,539.7899 " fill="none" id="apoint169229-Chantier" style="stroke:#181818;stroke-width:1.0;"/></g><!--MD5=[258dd8f5671072c79148632c8d7ea206]
link apoint169229 to Affecter--><g id="link_apoint169229_Affecter"><path d="M10.2852,410.5 C21.7865,410.5 33.2879,410.5 44.7892,410.5 " fill="none" id="apoint169229-Affecter" style="stroke:#181818;stroke-width:1.0;stroke-dasharray:7.0,7.0;"/></g><!--MD5=[c66a823813389712fb5532e94d91b80e]
@startuml
class Entreprise {
    nom: String
}

class Artisan {
    prenom: String
    nom: String
    salaire: int
    horaires: String
    tel: String
}

class Chantier {
    dateDebut: String
    dateFin: String
    adresse: String
}

class Affecter {
    nbHeures: int
    debutMission: String
    finMission: String
    int calculerPaye()
}

Entreprise "0..1" - -> "0..*" Artisan : "Employer"
Entreprise "0..1" - -> "0..*" Chantier : "Gérer"

(Artisan, Chantier) . Affecter
@enduml

PlantUML version 1.2022.3beta2(Unknown compile time)
(GPL source distribution)
Java Runtime: Java(TM) SE Runtime Environment
JVM: Java HotSpot(TM) 64-Bit Server VM
Default Encoding: UTF-8
Language: en
Country: US
--></g></svg>